<?xml version="1.0" encoding="iso-8859-1"?>
<!-- Uploaded to: SVG Repo, www.svgrepo.com, Generator: SVG Repo Mixer Tools -->
<svg fill="#000000" height="800px" width="800px" version="1.1" id="Layer_1" xmlns="http://www.w3.org/2000/svg" xmlns:xlink="http://www.w3.org/1999/xlink" 
	 viewBox="0 0 512 512" xml:space="preserve">
<g>
	<g>
		<path d="M287.883,438.638l-72.599-72.634v48.715H55.881c-3.995,0-6.034-2.488-6.895-3.971c-0.859-1.483-2.009-4.487-0.027-7.955
			l27.597-48.292l-41.522-23.728L7.438,379.068c-9.982,17.468-9.912,38.284,0.185,55.686c10.099,17.401,28.138,27.79,48.257,27.79
			h159.404v48.711L287.883,438.638z"/>
	</g>
</g>
<g>
	<g>
		<path d="M504.44,378.604l-79.703-138.047l42.185-24.357l-99.188-26.564l-26.604,99.189l42.19-24.358l79.703,138.046
			c1.996,3.459,0.862,6.471,0.008,7.956c-0.853,1.486-2.882,3.982-6.875,4l-55.62,0.247l0.212,47.823l55.62-0.247
			c20.119-0.089,38.112-10.559,48.133-28.004C514.521,416.843,514.499,396.029,504.44,378.604z"/>
	</g>
</g>
<g>
	<g>
		<path d="M302.054,28.427c-10.115-17.341-28.12-27.682-48.187-27.682c-0.043,0-0.089,0-0.132,0
			c-20.118,0.045-38.134,10.473-48.192,27.897L125.841,166.69l-42.185-24.357l26.588,99.181l99.202-26.555l-42.19-24.358
			l79.703-138.047c1.997-3.458,5.17-3.98,6.883-3.985c1.695,0.011,4.889,0.505,6.903,3.953l28.025,48.045l41.31-24.095
			L302.054,28.427z"/>
	</g>
</g>
</svg>